<?xml version="1.0" standalone="no"?>
<!DOCTYPE svg PUBLIC "-//W3C//DTD SVG 1.1//EN" "http://www.w3.org/Graphics/SVG/1.1/DTD/svg11.dtd" >
<svg xmlns="http://www.w3.org/2000/svg">
<metadata>
Created by FontForge 20120731 at Tue Mar 21 13:25:09 2017
 By admin
</metadata>
<defs>
<font id="iconfont" horiz-adv-x="1024" >
  <font-face 
    font-family="iconfont"
    font-weight="500"
    font-stretch="normal"
    units-per-em="1024"
    panose-1="2 0 6 3 0 0 0 0 0 0"
    ascent="896"
    descent="-128"
    x-height="792"
    bbox="-0.533333 -222 2398 896"
    underline-thickness="0"
    underline-position="0"
    unicode-range="U+0078-E823"
  />
<missing-glyph 
 />
    <glyph glyph-name=".notdef" 
 />
    <glyph glyph-name=".notdef" 
 />
    <glyph glyph-name=".null" horiz-adv-x="0" 
 />
    <glyph glyph-name="nonmarkingreturn" horiz-adv-x="341" 
 />
    <glyph glyph-name="x" unicode="x" horiz-adv-x="1001" 
d="M281 543q-27 -1 -53 -1h-83q-18 0 -36.5 -6t-32.5 -18.5t-23 -32t-9 -45.5v-76h912v41q0 16 -0.5 30t-0.5 18q0 13 -5 29t-17 29.5t-31.5 22.5t-49.5 9h-133v-97h-438v97zM955 310v-52q0 -23 0.5 -52t0.5 -58t-10.5 -47.5t-26 -30t-33 -16t-31.5 -4.5q-14 -1 -29.5 -0.5
t-29.5 0.5h-32l-45 128h-439l-44 -128h-29h-34q-20 0 -45 1q-25 0 -41 9.5t-25.5 23t-13.5 29.5t-4 30v167h911zM163 247q-12 0 -21 -8.5t-9 -21.5t9 -21.5t21 -8.5q13 0 22 8.5t9 21.5t-9 21.5t-22 8.5zM316 123q-8 -26 -14 -48q-5 -19 -10.5 -37t-7.5 -25t-3 -15t1 -14.5
t9.5 -10.5t21.5 -4h37h67h81h80h64h36q23 0 34 12t2 38q-5 13 -9.5 30.5t-9.5 34.5q-5 19 -11 39h-368zM336 498v228q0 11 2.5 23t10 21.5t20.5 15.5t34 6h188q31 0 51.5 -14.5t20.5 -52.5v-227h-327z" />
    <glyph glyph-name="shanchu" unicode="&#xe60b;" 
d="M344.5 105q11.5 0 19.5 8t8 20v306q0 12 -8 20t-19.5 8t-19.5 -8t-8 -20v-306q0 -12 8 -20t19.5 -8zM511.5 105q11.5 0 20 8t8.5 20v306q0 12 -8.5 20t-20 8t-19.5 -8t-8 -20v-306q0 -12 8 -20t19.5 -8zM679.5 105q11.5 0 19.5 8t8 20v306q0 12 -8 20t-19.5 8t-20 -8
t-8.5 -20v-306q0 -12 8.5 -20t20 -8zM819 746h-116q-9 37 -39 60.5t-68 23.5h-168q-38 0 -68 -23.5t-39 -60.5h-116q-46 0 -79 -32.5t-33 -78.5v-28h28v-28h56v-530q0 -46 32.5 -79t79.5 -33h446q46 0 79 33t33 79v530h55v28h28v28q0 46 -32.5 78.5t-78.5 32.5zM428 774h168
q31 0 48 -28h-264q16 28 48 28zM791 49q0 -23 -16.5 -39.5t-39.5 -16.5h-446q-24 0 -42 16.5t-18 39.5l4 530h558v-530zM149 635q0 23 16.5 39.5t39.5 16.5h614q23 0 39.5 -16.5t16.5 -39.5h-726z" />
    <glyph glyph-name="dianhua" unicode="&#xe604;" 
d="M605 729q-3 0 -6 1q-15 0 -26.5 -9t-14.5 -24q-4 -16 5.5 -30t25.5 -17q64 -13 117 -49t89 -91q74 -112 47 -244q-4 -16 5.5 -30t25.5 -17q3 -1 7 -1q12 -1 23 6q14 10 18 26q22 108 -12.5 210t-115 174.5t-188.5 94.5v0zM675 123q57 -37 96 -77q41 -43 41 -74
q-1 -31 -37 -64q-8 -8 -21 -18t-49 -24t-74 -14q-35 0 -71 11q-38 12 -76 35q-75 44 -135 103t-114 143q-44 66 -73 134t-39.5 121t-13.5 81.5t-3 48.5q0 40 13 75t29.5 56t38 39t32.5 24t19 10q28 12 50 12q11 0 21 -3q28 -8 43 -40q26 -57 43 -141q2 -12 2 -22t-1.5 -17
t-6 -13.5t-8.5 -11t-11.5 -9t-12 -7t-12.5 -6.5l-1 -1q-54 -22 -63 -26q-7 -3 -10.5 -10t-0.5 -14q33 -100 95 -196q61 -94 138 -165q5 -5 13 -5h1q9 1 14 7q17 23 34 38q37 36 69 36q8 0 16.5 -2.5t24.5 -13.5v0zM505 398q-16 4 -25 18t-6 30q3 15 14.5 24t26.5 8q3 0 7 -1
q70 -14 109.5 -74t24.5 -130q-3 -17 -17 -26q-11 -7 -24 -7q-3 1 -6 1q-17 4 -26 17.5t-6 30.5q8 37 -13 69.5t-59 39.5v0zM547 525q-16 3 -25 17t-6 30q3 15 14.5 24t26.5 8h7q117 -25 183 -125t42 -218q-3 -16 -17 -25q-11 -8 -24 -7q-3 0 -7 1q-16 3 -25 17t-6 30
q18 85 -30 157.5t-133 90.5z" />
    <glyph glyph-name="fenxiang" unicode="&#xe62f;" 
d="M797 207q-47 0 -85.5 -25t-57.5 -65l-268 53q-3 22 -12 43l179 193q31 -14 64 -14q66 0 113 47t47 112.5t-47 112.5t-112.5 47t-112.5 -47t-47 -113q0 -49 28 -89l-167 -181q-41 29 -91 29q-66 0 -113 -46.5t-47 -112.5t47 -112.5t113 -46.5q47 0 86 25.5t58 66.5
l267 -52q6 -61 51.5 -102t106.5 -41q66 0 112.5 46.5t46.5 112.5t-46.5 112.5t-112.5 46.5zM617.5 624q30.5 0 51.5 -21t21 -51.5t-21 -51.5t-51.5 -21t-51.5 21t-21 51.5t21 51.5t51.5 21zM228 79q-30 0 -51.5 21t-21.5 51t21.5 51.5t51.5 21.5t51 -21.5t21 -51.5t-21 -51
t-51 -21zM797 -25q-30 0 -51.5 21.5t-21.5 51.5t21.5 51t51.5 21t51.5 -21t21.5 -51t-21.5 -51.5t-51.5 -21.5z" />
    <glyph glyph-name="caidan" unicode="&#xe6dc;" 
d="M82 92q-29 0 -50.5 -21t-21.5 -49t22 -50t50 -22t49 21.5t21 50.5q0 28 -21 49t-49 21zM82 436q-29 0 -50.5 -21t-21.5 -49t21.5 -49t50.5 -21q28 0 49 21t21 49t-21 49t-49 21zM338 646h606q27 0 46.5 18.5t19.5 45.5t-19.5 46.5t-46.5 19.5h-606q-27 0 -46.5 -19.5
t-19.5 -46.5t19.5 -45.5t46.5 -18.5zM82 782q-28 0 -50 -22t-22 -50t21.5 -49t50.5 -21q28 0 49 21t21 49q0 29 -21 50.5t-49 21.5zM944 432h-606q-27 0 -46.5 -19.5t-19.5 -46.5t19.5 -46.5t46.5 -19.5h606q27 0 46.5 19.5t19.5 46.5t-19.5 46.5t-46.5 19.5zM944 88h-606
q-27 0 -46.5 -19.5t-19.5 -46.5t19.5 -46.5t46.5 -19.5h606q27 0 46.5 19.5t19.5 46.5t-19.5 46.5t-46.5 19.5z" />
    <glyph glyph-name="checked" unicode="&#xe665;" 
d="M512 715q-116 0 -214 -57.5t-155.5 -155.5t-57.5 -214t57.5 -214t155.5 -155.5t214 -57.5t214 57.5t155.5 155.5t57.5 214t-57.5 214t-155.5 155.5t-214 57.5zM467 137l-30 -30l-181 181l30 30l151 -151l301 302l30 -30z" />
    <glyph glyph-name="llreservecalendar" unicode="&#xe600;" 
d="M862 -146h-712q-20 0 -34.5 14.5t-14.5 35.5v726q0 21 14.5 35.5t34.5 14.5h100v14q0 21 13.5 36.5t33.5 15.5h71q19 0 33 -15.5t14 -36.5v-14h198v14q0 21 14 36.5t34 15.5h71q19 0 33 -15.5t14 -36.5v-14h83q20 0 34.5 -14.5t14.5 -35.5v-726q0 -21 -14.5 -35.5
t-34.5 -14.5zM861 631h-95v0h-139v0h-225v0h-139v0h-112v-116h710v116zM861 465h-710v-562h710v562zM274 250v0q0 42 33 71t79 29t79 -29t33 -71q0 -44 -39 -74q39 -30 39 -74q0 -41 -33 -70.5t-79 -29.5t-79 29.5t-33 70.5v0h50v-1q0 -22 18.5 -38.5t44 -16.5t43.5 16.5
t18 38.5q0 19 -12.5 33.5t-31.5 19.5q-9 -3 -18 -3q-15 0 -26 7.5t-11 17.5t11 17.5t26 7.5q6 0 12 -1v0q1 0 4 -0.5t5 -0.5q18 6 29.5 20t11.5 32q0 23 -18 39t-44 16t-44 -16t-18 -39v-1h-50zM597 325q11 2 19 4t13 5l7.5 4.5t5.5 5.5t5 6v0h1h48v-348h-49v273h-75v50
q12 0 17.5 -0.5t7.5 0.5zM139 529h743v-81h-743v81z" />
    <glyph glyph-name="fenxiang1" unicode="&#xe631;" horiz-adv-x="1088" 
d="M85 -212q-35 0 -60 24.5t-25 58.5v662q0 35 25 59t60 24h212v-63h-212q-9 0 -15 -6t-6 -14v-662q0 -8 6 -13.5t15 -5.5h860q9 0 15.5 5.5t6.5 13.5v238h64v-238q0 -34 -25 -58.5t-61 -24.5h-860v0zM448 18q-2 6 -3.5 21.5t0 56t9 82t29.5 97t56 104.5q128 184 413 249
l-231 124l33 60l333 -181l-195 -309l-57 36l128 203q-256 -60 -368 -220q-65 -92 -79 -213q-7 -61 -1 -107l2 -10l-68 -1l-1 8v0zM457 19q-1 8 -2.5 24t0 55.5t9 80t29 94t53.5 100.5q141 201 471 258l8 -48q-310 -53 -438 -237q-30 -42 -49 -92t-26 -86.5t-8 -76t0 -50.5
t2 -21l-49 -1v0v0zM889 335l-41 26l157 249l-271 146l23 43l317 -171l-185 -293v0zM889 335z" />
    <glyph glyph-name="follow" unicode="&#xe69e;" 
d="M668 245q7 -6 15 -6q11 0 19 8t8 19q0 14 -12 22v0q-48 32 -103 50q65 34 104 97t39 139q0 110 -78 187.5t-188 77.5t-187.5 -77.5t-77.5 -187.5q0 -76 39 -139t104 -97q-123 -39 -201 -144t-79 -237v-1v-1q1 -11 8.5 -18t18 -7t18 7t8.5 18q0 95 46.5 175.5t127 127
t175.5 46.5q107 0 196 -60v1v0zM260 574q0 88 62 150t150 62t150.5 -62t62.5 -150t-62.5 -150.5t-150.5 -62.5t-150 62.5t-62 150.5zM928 118h-112v111q0 11 -7.5 18.5t-18 7.5t-18 -7.5t-7.5 -18.5v-111h-112q-10 0 -17.5 -7.5t-7.5 -18t7.5 -18t17.5 -7.5h112v-113
q0 -10 7.5 -17.5t18 -7.5t18 7.5t7.5 17.5v113h112q11 0 18.5 7.5t7.5 18t-7.5 18t-18.5 7.5z" />
    <glyph glyph-name="anonymous-iconfont" unicode="&#xe60f;" 
d="M511 -146q-91 0 -173.5 35.5t-142.5 95.5t-95.5 142.5t-35.5 173t35.5 173.5t95.5 142.5t142.5 95t173.5 35.5t173.5 -35.5t142.5 -95t95 -142.5t35 -173.5t-35 -173t-95 -142.5t-142.5 -95.5t-173.5 -35.5zM511 701q-109 0 -201 -53.5t-146 -146t-54 -201t54 -200.5
t146 -146t201 -54t201 54t145.5 146t53.5 200.5t-53.5 201t-145.5 146t-201 53.5zM511 331q-10 0 -17 7l-166 182q-7 7 -6.5 16.5t7.5 16t16.5 6t15.5 -7.5l150 -163l149 163q7 7 16.5 7.5t16.5 -6t7.5 -16t-6.5 -16.5l-166 -182q-7 -7 -17 -7zM692 331h-363q-9 0 -16 6.5
t-7 16t7 16.5t16 7h363q10 0 16.5 -7t6.5 -16.5t-6.5 -16t-16.5 -6.5zM708 179h-394q-9 0 -16 7t-7 16.5t7 16t16 6.5h394q9 0 16 -6.5t7 -16t-7 -16.5t-16 -7zM510.5 23q-9.5 0 -16 7t-6.5 16v308q0 9 6.5 16t16 7t16.5 -7t7 -16v-308q0 -9 -7 -16t-16.5 -7z" />
    <glyph glyph-name="gouwuche2" unicode="&#xe61f;" 
d="M327 -111q-44 0 -75 31t-31 75t31 75t75 31t75.5 -31t31.5 -75t-31.5 -75t-75.5 -31zM327.5 57q-25.5 0 -43.5 -18.5t-18 -43.5t18 -43.5t43.5 -18.5t43.5 18.5t18 43.5t-18 43.5t-43.5 18.5zM649 -111q-44 0 -75.5 31t-31.5 75t31.5 75t75.5 31t75 -31t31 -75t-31 -75
t-75 -31zM648.5 57q-25.5 0 -43.5 -18.5t-18 -43.5t18 -43.5t43.5 -18.5t43.5 18.5t18 43.5t-18 43.5t-43.5 18.5zM772 539h-687q-9 0 -15.5 6.5t-6.5 16t6.5 16t15.5 6.5h687q9 0 15.5 -6.5t6.5 -16t-6.5 -16t-15.5 -6.5zM698 241h-391q-15 0 -21 14l-125 296
q-4 9 -0.5 17.5t12 12t17.5 0t12 -11.5l120 -283h376q9 0 15.5 -6.5t6.5 -15.5t-6.5 -16t-15.5 -7zM783 128h-623q-9 0 -16 6.5t-7 15.5t7 15.5t16 6.5h606l146 517q3 9 11 13.5t17 2t13.5 -10.5t2.5 -17l-151 -533q-5 -16 -22 -16z" />
    <glyph glyph-name="wo" unicode="&#xe6a3;" 
d="M672 666q-67 71 -162 71t-162 -71q-67 -69 -67 -167t67 -168q17 -19 39 -33q-87 -29 -148 -90q-117 -116 -118 -326q0 -12 9 -21t22 -9v0q13 0 22 8.5t9 21.5q0 237 162 330q36 21 79.5 33t60.5 13.5t27 1.5v0q4 0 8 1q89 4 152 70q67 70 67 168t-67 167zM510 322
q-69 0 -118 52t-49 125t49 124.5t118 51.5t118 -51.5t49 -124.5t-49 -125t-118 -52zM762 237q-11 6 -23.5 3t-19 -14t-3.5 -23.5t14 -18.5q3 -1 8 -5.5t18.5 -19t24.5 -33.5q57 -94 57 -248q0 -12 9 -21t22 -9t22 9t9 21q0 77 -14.5 142.5t-32.5 102t-41 65.5t-33.5 37
t-16.5 12z" />
    <glyph glyph-name="next" unicode="&#xe646;" 
d="M511 800q-104 0 -198.5 -40.5t-163 -109t-109 -163t-40.5 -198.5t40.5 -198.5t109 -163t163 -109t198.5 -40.5t198.5 40.5t163 109t109 163t40.5 198.5t-40.5 198.5t-109 163t-163 109t-198.5 40.5zM447 66l-32 31l192 192l-192 192l32 32l224 -224z" />
    <glyph glyph-name="wo1" unicode="&#xe610;" 
d="M665 231q56 39 88.5 100.5t32.5 132.5q0 118 -83.5 201.5t-201.5 83.5t-201.5 -83.5t-83.5 -201.5q0 -74 34.5 -136.5t93.5 -101.5q-110 -48 -178.5 -148.5t-71.5 -224.5h41q3 120 74.5 215t182.5 132q52 -21 109 -21q61 0 117 25q116 -34 191 -130.5t78 -220.5h41
q-3 127 -75.5 229.5t-187.5 148.5zM501 220q-101 0 -172.5 71.5t-71.5 172.5t71.5 172.5t172.5 71.5t172.5 -71.5t71.5 -172.5t-71.5 -172.5t-172.5 -71.5z" />
    <glyph glyph-name="bi" unicode="&#xe65d;" 
d="M1002 546l-237 232q-20 19 -47.5 19t-47.5 -19l-592 -581q-15 -37 -38 -164.5t-37 -226.5q3 -3 8 -9.5t9.5 -11t10.5 -6.5q59 8 203 44.5t176 48.5l592 581q19 19 19 46t-19 47v0v0zM102 -152l-24 24l20 119l115 -113zM362 -82l-74 -20l-176 173l13 80l474 464l48 -46
l-450 -442l47 -46l450 441l47 -46l-355 -349l47 -46l356 348l47 -46l-474 -465v0zM883 429l-236 233l71 70l236 -233zM883 429z" />
    <glyph glyph-name="my" unicode="&#xe63e;" 
d="M737 434q0 91 -64 155t-155 64t-155 -64t-64 -155q0 -60 30.5 -110t80.5 -79q-94 -30 -150.5 -110.5t-59.5 -185.5l33 1q4 108 78.5 187.5t169.5 79.5l29 -1l8 -1q91 0 155 64.5t64 154.5v0zM518 250q-76 0 -130 54t-54 130.5t54 130t130 53.5t130 -53.5t54 -130
t-54 -130.5t-130 -54v0zM701 181q-9 8 -17 8t-13 -5t-5 -14q1 -9 16 -23v0v0q45 -35 73 -86.5t32 -111.5h35q-4 70 -36 130t-85 102v0z" />
    <glyph glyph-name="zuo" unicode="&#xe670;" 
d="M326 299l397 398q5 5 5 12t-5 12t-12 5t-12 -5l-410 -410q-5 -5 -5 -12t5 -12l410 -410q5 -5 12 -5t12 5t5 12.5t-5 12.5z" />
    <glyph glyph-name="iconcha" unicode="&#xe686;" 
d="M876 653l-34 34l-331 -332l-320 322l-34 -35l320 -322l-331 -332l35 -34l330 332l312 -314l35 35l-312 313z" />
    <glyph glyph-name="kefu" unicode="&#xe612;" 
d="M203 182q-22 -5 -24 -5q-5 -1 -22 3q-37 8 -61 30q-25 23 -30 58q-6 40 9 70q19 36 62 53q8 3 17 5q4 1 6 5q18 69 60 125q75 101 195 135q66 18 139 11q104 -11 188 -79.5t117 -167.5q4 -13 7 -24q1 -4 5 -5q41 -11 65 -39q25 -30 23 -75q-2 -37 -24 -62
q-19 -22 -52 -34q-12 -5 -27 -8q-3 0 -5 -4q-21 -53 -57 -96q-46 -57 -111 -91q-25 -14 -49 -22q-9 -3 -13 -12l-1 -1q-8 -26 -39 -26q-15 1 -29 4q-13 2 -17 15q-7 18 2 34q5 8 14 10q32 9 56 3q7 -2 14 1q179 67 218 246q35 161 -74 289q-74 87 -185 109q-169 32 -296 -84
q-70 -64 -95 -160q-14 -52 -10 -109q4 -50 23 -98zM774 405q-30 82 -101 132t-155 51q-27 0 -47 -3q-82 -13 -141 -66q-95 -84 -96 -210q0 -75 39 -141q19 -33 41 -54q40 -36 94 -61q21 -9 26 -11q33 -10 70 -11q64 -2 117 22q143 65 167 219q10 66 -14 133zM512 72
q-98 1 -167.5 70.5t-68.5 166.5q0 99 69.5 168t167.5 69q98 -1 167 -70t69 -167t-69.5 -167.5t-167.5 -69.5zM596 212q-67 -28 -133 -13q-49 12 -94 47q0 1 -8 7l1 -10q2 -23 11 -44q20 -48 65 -69q37 -17 89 -14q39 2 67 17q62 34 71 120q-2 -1 -3 -2q-29 -24 -66 -39z" />
    <glyph glyph-name="youyou" unicode="&#xe608;" 
d="M695 303l-410 -413l-28 28l382 385l-382 384l28 28z" />
    <glyph glyph-name="xuanzhong" unicode="&#xe7c8;" 
d="M511 783q-98 0 -187.5 -38t-154.5 -103t-103 -154.5t-38 -188t38 -188t103 -154t154.5 -103t188 -38.5t188 38.5t154 103t103 154t38.5 188t-38.5 188t-103 154.5t-154 103t-188.5 38v0zM511 -150q-91 0 -174.5 35.5t-144 95.5t-96 143.5t-35.5 175t35.5 175t96 144
t144 96t175 35.5t175 -35.5t143.5 -96t96 -144t36 -175t-36 -175t-96 -143.5t-143.5 -95.5t-175.5 -35.5v0zM245 300q0 -111 78 -189t188.5 -78t188.5 78t78 188.5t-78 189t-188.5 78.5t-188.5 -78.5t-78 -188.5v0z" />
    <glyph glyph-name="suo" unicode="&#xe60a;" 
d="M750 -144h-492q-64 0 -110 46.5t-46 112.5v307q0 45 32.5 77.5t77.5 32.5h586q45 0 77.5 -32.5t32.5 -77.5l-2 -307q0 -66 -46 -112.5t-110 -46.5zM212 388q-27 0 -46.5 -19.5t-19.5 -46.5l-1 -307q0 -48 33.5 -81.5t79.5 -33.5h492q46 0 79.5 33.5t33.5 81.5l1 307
q0 27 -19.5 46.5t-46.5 19.5h-586zM277 414h-44v87q0 103 73 176t177 73h37q103 0 176 -73t73 -176v-83h-43v83q0 85 -60.5 145.5t-145.5 60.5h-37q-85 0 -145.5 -60.5t-60.5 -145.5v-87zM580 193q0 32 -22.5 54.5t-54.5 22.5t-54.5 -22.5t-22.5 -54.5q0 -25 15.5 -45.5
t38.5 -27.5v-96q0 -11 7 -18t16.5 -7t16 7t6.5 18v96q24 7 39 27.5t15 45.5z" />
    <glyph glyph-name="xuanze" unicode="&#xe627;" 
d="M512 -212q-104 0 -199 40.5t-163.5 109t-109 163.5t-40.5 199t40.5 199t109 163.5t163.5 109t199 40.5t199 -40.5t163.5 -109t109 -163.5t40.5 -199t-40.5 -199t-109 -163.5t-163.5 -109t-199 -40.5zM512 773q-96 0 -183.5 -37.5t-151 -101t-100.5 -151t-37 -183.5
t37 -183.5t100.5 -151t151 -101t183.5 -37.5t183.5 37.5t151 101t100.5 151t37 183.5t-37 183.5t-100.5 151t-151 101t-183.5 37.5zM841 464l-376 -375q-6 -6 -14 -6t-13 6l-216 215q-5 5 -5 13t5.5 14t13.5 6t14 -6l201 -201l363 361q5 6 13 6t14 -5.5t6 -13.5t-6 -14z" />
    <glyph glyph-name="kongaixin" unicode="&#xe629;" 
d="M134 149zM517 17q-8 0 -17 2q-11 3 -20 11q-122 90 -212 181q-65 66 -105 125q-32 48 -46 92q-10 29 -12 71q-3 82 42.5 151t120.5 98q44 16 87 16q67 0 131 -40q16 -10 32 -24q18 15 29 22v1q62 41 132 41q18 0 36 -3q124 -19 186 -134q30 -57 29 -130q-1 -58 -34 -120
q-24 -45 -66 -96q-50 -61 -125 -128q-66 -60 -150 -123q-18 -13 -38 -13zM355 723q-36 0 -73 -13q-63 -24 -101 -82.5t-35 -126.5q2 -36 9 -60q13 -39 42 -82q38 -56 100 -120q88 -88 207 -176v-1l8 -4q3 -1 5 -1q6 0 14 6q82 62 146 120q73 66 122 124q39 48 61 89
q28 53 29 102q1 62 -24 110q-52 97 -156 113q-15 2 -30 2q-58 0 -109 -34q-9 -6 -26 -21l-15 -12l-16 -13l-12 15q-1 2 -2 2q-17 18 -35 30q-54 33 -109 33z" />
    <glyph glyph-name="zuobian" unicode="&#xe609;" 
d="M264 365q-4 4 -6 9q-6 16 6 29v0l458 457q7 8 18.5 8t19.5 -8t8 -19t-8 -19l-439 -438l439 -438q8 -8 8 -19t-8 -19t-19 -8t-19 8l-458 457v0v0v0v0z" />
    <glyph glyph-name="qiandao" unicode="&#xe65c;" 
d="M841 4h-637q-52 0 -94 41q-45 44 -45 101v432q0 57 45 98q42 37 94 37h74v-48h-74q-36 0 -66 -25.5t-30 -61.5v-432q0 -36 29 -65q31 -30 67 -30h637q35 0 54.5 28.5t19.5 66.5v432q0 39 -20.5 63t-53.5 24h-95v48h95q52 0 85 -40q31 -38 31 -95v-432q0 -58 -30 -98
q-34 -44 -86 -44zM362 725h299v-49h-299v49zM503 206l-143 150l28 34l115 -122l187 196l28 -34zM321.5 589q-8.5 0 -14.5 7t-6 17v129q0 10 6 17t14.5 7t15 -7t6.5 -17v-129q0 -10 -6.5 -17t-15 -7zM703 589q-9 0 -15 7t-6 17v129q0 10 6 17t15 7t15 -7t6 -17v-129
q0 -10 -6 -17t-15 -7z" />
    <glyph glyph-name="dingdan" unicode="&#xe632;" 
d="M351 843q-10 0 -18 8t-8 18.5t8 18.5t18 8h293q11 0 19 -8t8 -18.5t-8 -18.5t-19 -8h-293zM200 106q-11 0 -18.5 7.5t-7.5 18.5t7.5 18.5t18.5 7.5h596q11 0 18.5 -7.5t7.5 -18.5t-7.5 -18.5t-18.5 -7.5h-596zM200 335q-11 0 -18.5 7.5t-7.5 18t7.5 18.5t18.5 8h596
q11 0 18.5 -8t7.5 -18.5t-7.5 -18t-18.5 -7.5h-596zM200 555q-11 0 -18.5 8t-7.5 18.5t7.5 18.5t18.5 8h596q11 0 18.5 -8t7.5 -18.5t-7.5 -18.5t-18.5 -8h-596zM784 843q-11 0 -19 8t-8 18.5t8 18.5t19 8h133q33 0 56 -23.5t23 -55.5v-867q0 -32 -23 -55v0v0h-1
q-23 -23 -55 -23h-839q-32 0 -55 23t-23 55v867q0 32 23 55v1q23 23 55 23h134q11 0 18.5 -8t7.5 -18.5t-7.5 -18.5t-18.5 -8h-134q-10 0 -18 -7.5t-8 -18.5v-867q0 -10 8 -18t18 -8h839q11 0 19 8v0q7 8 7 18v867q0 11 -7.5 18.5t-18.5 7.5h-133zM972 -105q-7 -8 -18 -7.5
t-18 7.5h36z" />
    <glyph glyph-name="liwu" unicode="&#xe60d;" 
d="M780 0h-537q-18 0 -31.5 13.5t-13.5 32.5v385q0 6 5 11t11.5 5t11 -5t4.5 -11v-385q0 -6 4 -10t9 -4h537q5 0 9 4t4 10v385q0 6 5 11t11.5 5t11 -5t4.5 -11v-385q0 -19 -13 -32.5t-32 -13.5zM824 425h-624q-19 0 -32.5 13t-13.5 32v53q0 19 13.5 32.5t32.5 13.5h624
q18 0 31.5 -13.5t13.5 -32.5v-53q0 -19 -13.5 -32t-31.5 -13zM200 537q-6 0 -10 -4t-4 -10v-53q0 -6 4 -10t10 -4h624q5 0 9 4t4 10v53q0 6 -4 10t-9 4h-624zM445.5 4q-6.5 0 -11 5t-4.5 11v535q0 6 4.5 10.5t11 4.5t11 -4.5t4.5 -10.5v-535q0 -6 -4.5 -11t-11 -5zM577.5 4
q-6.5 0 -11 5t-4.5 11v535q0 6 4.5 10.5t11 4.5t11.5 -4.5t5 -10.5v-535q0 -6 -5 -11t-11.5 -5zM450 553q-103 0 -136 33q-32 32 -32 77.5t32 77.5q32 31 78.5 31t77.5 -31q18 -18 26.5 -59.5t6.5 -71t-1 -41.5q-2 -14 -15 -15q0 -1 -37 -1zM392.5 742q-32.5 0 -55.5 -23
t-23 -55.5t23 -55.5t113 -23h21q2 41 -3.5 80.5t-19.5 53.5q-23 23 -55.5 23zM573 553v0l-37 1q-13 1 -14 15q0 12 -2 41.5t6.5 71t26.5 59.5q31 31 78 31t78 -31q32 -32 32 -77.5t-32 -77.5q-33 -33 -136 -33zM552 585h21q90 0 113 23t23 55.5t-23 55.5q-22 22 -55 22
t-55 -22q-15 -14 -20 -53.5t-4 -80.5z" />
    <glyph glyph-name="liaotian" unicode="&#xe624;" 
d="M509 825q90 2 170.5 -32t140.5 -92.5t95.5 -138.5t36.5 -170q1 -87 -30 -163t-85 -134.5t-128 -96.5t-159 -47q-44 -6 -102.5 -9t-151.5 6q-53 5 -91 12t-63 14t-35.5 12t-6.5 7q57 10 91 29q20 11 16.5 31.5t-20.5 37.5q-50 56 -82 130.5t-33 161.5q-1 91 33 171.5
t93 140.5t139.5 94.5t171.5 35.5v0v0zM368 307q31 0 52.5 22t21.5 52t-21.5 52.5t-53 22.5t-53 -22.5t-21.5 -52.5t21.5 -52t53.5 -22v0v0zM657 308q31 0 52.5 21t21.5 51t-21.5 51.5t-52 21.5t-51.5 -21.5t-21 -51.5t21 -51t51 -21v0v0zM657 308z" />
    <glyph glyph-name="shizhong" unicode="&#xe660;" 
d="M515 769q-104 0 -192.5 -51.5t-140 -140t-51.5 -192.5t51.5 -192t140 -139.5t192.5 -51.5t192.5 51.5t139.5 139.5t51 192t-51 192.5t-139.5 140t-192.5 51.5zM514.5 41q-93.5 0 -173 46t-125.5 125.5t-46 173t46 173t125.5 125.5t173 46t173 -46t126 -125.5t46.5 -173
t-46.5 -173t-126 -125.5t-173 -46zM487 337q-9 0 -15 6t-6 15v219q0 9 6 15.5t15 6.5t15 -6.5t6 -15.5v-198h144q8 0 14.5 -6t6.5 -15t-6.5 -15t-14.5 -6h-165z" />
    <glyph glyph-name="texttt2" unicode="&#xe655;" 
d="M64 832h640v-128h-640v128zM320 704h128v-704h-128v704zM576 576h448v-64h-448v64zM768 512h64v-512h-64v512z" />
    <glyph glyph-name="cuowu" unicode="&#xe641;" 
d="M547 384l416 416q7 7 7 17.5t-7 17.5t-17.5 7t-17.5 -7l-416 -416l-416 416q-7 7 -17.5 7t-17.5 -7t-7 -17.5t7 -17.5l416 -416l-416 -416q-7 -7 -7 -17.5t7 -17.5t17.5 -7t17.5 7l416 416l416 -416q7 -7 17.5 -7t17.5 7t7 17.5t-7 17.5z" />
    <glyph glyph-name="sanjiao" unicode="&#xe821;" 
d="M941 639q22 -26 21.5 -60.5t-24.5 -59.5l-363 -377q-25 -26 -60.5 -26t-60.5 26l-364 377q-23 25 -24 59.5t21 60.5h854z" />
    <glyph glyph-name="nian" unicode="&#xe823;" 
d="M511.5 833q-91.5 0 -174.5 -35.5t-143 -95.5t-95.5 -143t-35.5 -174.5t35.5 -174.5t95.5 -143t143 -95.5t174.5 -35.5t174.5 35.5t143 95.5t95.5 143t35.5 174.5t-35.5 174.5t-95.5 143t-143 95.5t-174.5 35.5zM511.5 -27q-111.5 0 -206 55t-150 150t-55.5 206.5
t55.5 206.5t150 150t206 55t206.5 -55t150 -150t55 -206.5t-55 -206.5t-150 -150t-206.5 -55zM399 583q201 0 254.5 1.5t88.5 7.5v-42q-10 3 -188 3v-84q113 0 150 3v-35q-31 2 -150 2v-116q132 0 215 4v-38q-84 4 -215 4v-80q0 -46 6 -99h-48q5 53 5 99v80q-196 0 -264 -4
v38q41 -3 101 -3v75q0 47 -4 73q50 -3 167 -3v84h-138q-41 -58 -75 -95q-16 17 -35 25q87 72 127 175q12 -15 36 -23q6 -2 6 -8t-5.5 -6.5t-11.5 -6.5t-22 -31zM517 439h-125v-116h125v116z" />
    <glyph glyph-name="community" unicode="&#xe67a;" 
d="M862 384q0 116 -68 210q-8 11 -21 13t-24 -5.5t-13 -20.5t6 -24q56 -78 56 -173t-56 -173q-8 -11 -6 -24t13 -20q9 -6 19 -6q16 0 26 13q68 94 68 210v0zM272 601q-11 8 -24 6t-21 -13q-68 -94 -68 -210t68 -210q10 -13 26 -13q10 0 19 6q10 7 12.5 20t-5.5 24
q-56 78 -56 173t56 173q8 11 5.5 24t-12.5 20v0zM850 756q-9 10 -22 11t-23 -8t-11 -22t8 -23q60 -69 92 -154t32 -176t-32 -176t-92 -154q-9 -10 -8 -23t11 -22q9 -8 21 -8q14 0 24 11q68 78 104 174t36 198t-36 198.5t-104 173.5v0zM98 384q0 91 32 176t92 154q9 10 8 23
t-11 22t-23 8t-22 -11q-68 -77 -104 -173.5t-36 -198.5t36 -198.5t104 -173.5q10 -11 24 -11q12 0 21 8q10 9 11 22t-8 23q-60 69 -92 154t-32 176v0zM514 607q-93 0 -158.5 -65.5t-65.5 -157.5q0 -47 19.5 -90.5t55.5 -75.5q9 -9 22.5 -8.5t22 10.5t8 23.5t-10.5 21.5
q-53 48 -53 119q0 66 46.5 113t113 47t113 -47t46.5 -113t-46.5 -113t-113.5 -47h-11q-22 0 -30 -21q-11 -32 -36 -58q-9 -9 -9 -22.5t9.5 -22.5t22.5 -9q14 0 23 10q26 27 42 60q89 4 151 68.5t62 154.5q0 92 -65.5 157.5t-157.5 65.5v0z" />
    <glyph glyph-name="aixin1" unicode="&#xe607;" 
d="M512 -23l-64 58q-50 45 -74 67.5t-65.5 61t-61.5 60t-51 55t-45.5 55t-34 51.5t-27.5 54.5t-14.5 52t-6.5 55.5q0 103 71 173.5t173 70.5q58 0 110.5 -24.5t89.5 -67.5q37 43 89.5 67.5t110.5 24.5q102 0 173 -70.5t71 -173.5q0 -28 -6.5 -55.5t-14.5 -52t-27.5 -54.5
t-34 -51.5t-45.5 -55t-51 -55t-61.5 -60t-65.5 -61t-74 -67.5z" />
    <glyph glyph-name="yiguanzhu" unicode="&#xe663;" 
d="M750 187q6 -6 14.5 -7t15.5 5t7.5 15t-5.5 16q-74 85 -185 118q67 33 108 96t41 140q0 108 -77 185t-185 77t-185 -77t-77 -185q0 -77 41 -140.5t108 -95.5q-110 -33 -186 -121.5t-91 -204.5q-4 -25 -4 -51q0 -9 6.5 -15.5t15.5 -6.5t15 6.5t6 15.5q0 23 3 46
q17 130 117 217.5t232 87.5q76 0 145.5 -31.5t119.5 -89.5zM265 569.5q0 90.5 64.5 155t155 64.5t154.5 -64.5t64 -155t-64 -154.5t-154.5 -64t-155 64t-64.5 154.5zM926.5 180q-7.5 7 -18 7t-17.5 -7l-182 -184l-80 83q-7 7 -17.5 7t-18 -7t-7.5 -17.5t7 -17.5l98 -101h1v0
q1 -1 5 -4q1 0 1.5 -0.5l1.5 -1.5q4 -1 9 -1t10 1q0 1 1 1.5l1 0.5q4 2 6 4v0v0l199 202q8 7 8 17.5t-7.5 17.5z" />
    <glyph glyph-name="yuedu" unicode="&#xe601;" 
d="M512 137q-192 0 -311 120q-11 11 -21 22t-17.5 21t-14.5 20t-11.5 18t-9 15.5t-6.5 12.5t-3.5 8.5l-1.5 3.5q-3 6 0 15q0 1 3.5 8t10 19t15.5 26.5t24 33t32 35.5q124 116 311 116q192 0 311 -120q11 -11 21 -22t17.5 -21t14.5 -20t11.5 -18t9 -15.5t6.5 -12.5t3.5 -8.5
l1.5 -3.5q3 -6 0 -15q0 -1 -3.5 -8t-10 -19t-15.5 -26.5t-24 -33t-32 -35.5q-124 -116 -311 -116zM152 384q7 -17 19.5 -37t42.5 -52.5t67.5 -57t98.5 -43.5t132 -19t132 19t98.5 43.5t67.5 57t42.5 52.5t19.5 37q-7 17 -19.5 37t-42.5 52.5t-67.5 57t-98.5 43.5t-132 19
q-70 0 -131 -19t-98.5 -43.5t-68 -57t-43 -52.5t-19.5 -37zM512 232q-63 0 -107.5 44.5t-44.5 107.5t44.5 107.5t107.5 44.5t107.5 -44.5t44.5 -107.5t-44.5 -107.5t-107.5 -44.5zM512 500q-48 0 -82 -34t-34 -82t34 -82t82 -34t82 34t34 82t-34 82t-82 34z" />
    <glyph glyph-name="dianzan" unicode="&#xe790;" 
d="M905 485q-29 46 -82 48q-3 1 -6 1h-190q20 57 20 118q0 39 -8 77h-1q-8 34 -34.5 55.5t-61.5 21.5q-41 0 -70 -29t-29 -70v-9q-2 -79 -56.5 -135.5t-132.5 -62.5v-1h-113q-3 1 -4 1q-15 0 -25 -10t-10 -25v-408q0 -15 10 -24.5t24 -9.5h6h125h5.5h4.5h473v0q30 0 54 15
t36 40q3 5 5 11l74 324q1 6 1 12q2 33 -15 60zM192 67h-46v378h46v-378z" />
    <glyph glyph-name="dianzan1" unicode="&#xe615;" 
d="M890.5 466q-32.5 41 -84.5 41h-189q16 45 19 91q6 72 -21 121q-33 60 -106 71q-32 5 -55 -12q-14 -11 -23 -31.5t-12 -37t-8 -49.5q-11 -87 -30 -120q-31 -51 -109 -51h-74q-36 0 -62 -26t-26 -63v-335q0 -36 26 -62t62 -26h535q37 0 66.5 23.5t38.5 59.5l73 315
q12 50 -20.5 91zM169 65v335q0 12 8.5 21t20.5 9h62v-394h-62q-12 0 -20.5 8.5t-8.5 20.5zM854 388l-74 -314q-3 -17 -16.5 -27.5t-30.5 -10.5h-414v398q76 14 112 76q26 43 39 142q5 41 9 56q5 18 11 23q3 2 11 1q44 -7 63 -41q18 -39 13.5 -89t-24.5 -94q-9 -21 3.5 -40.5
t35.5 -19.5h214q24 0 38.5 -18.5t9.5 -41.5z" />
    <glyph glyph-name="ditu" unicode="&#xe602;" 
d="M512 -128q-16 0 -44 26.5t-54.5 60t-55 74.5t-41.5 61t-18 28q-24 38 -47 79.5t-51.5 100t-46.5 116.5t-18 102q0 102 50.5 188.5t137 137t188.5 50.5q115 0 210 -64q6 -4 7.5 -11.5t-3 -14t-12 -8t-13.5 3.5q-85 57 -189 57q-92 0 -170 -45.5t-123.5 -123.5t-45.5 -170
q0 -68 46.5 -174t106 -198t114 -162t73.5 -77q20 6 75 76.5t113.5 163.5t104 199.5t45.5 171.5q0 96 -50 177q-4 7 -2 14.5t8.5 11.5t14 2t11.5 -8q55 -91 55 -197q0 -44 -17.5 -102.5t-45.5 -117t-51 -99.5t-46 -79q-12 -20 -30 -46.5t-56 -80t-73.5 -88.5t-56.5 -35z
M512 364q-77 0 -131.5 54t-54.5 131t54.5 131.5t131.5 54.5t131.5 -54.5t54.5 -131.5t-54.5 -131t-131.5 -54zM512 698q-62 0 -105.5 -43.5t-43.5 -105t43.5 -105.5t105.5 -44t105.5 44t43.5 105.5t-43.5 105t-105.5 43.5z" />
    <glyph glyph-name="xinyongqia" unicode="&#xe63c;" horiz-adv-x="1035" 
d="M127 -34q-52 0 -88.5 37t-36.5 88v587q0 51 36.5 88t88.5 37h780q51 0 88 -37t37 -88v-587q0 -51 -37 -88t-88 -37h-780zM57 91q0 -29 20.5 -49.5t49.5 -20.5h780q29 0 49.5 20.5t20.5 49.5v462h-920v-462zM127 748q-29 0 -49.5 -20.5t-20.5 -49.5v-71h920v71
q0 29 -20.5 49.5t-49.5 20.5h-780zM159 162q-11 0 -19 8t-8 19t8 19t19 8h260q12 0 20 -8t8 -19t-8 -19t-20 -8h-260zM159 292q-11 0 -19 8t-8 19.5t8 19.5t19 8h325q12 0 20 -8t8 -19.5t-8 -19.5t-20 -8h-325zM614 292q-11 0 -19 8t-8 19.5t8 19.5t19 8h65q12 0 20 -8
t8 -19.5t-8 -19.5t-20 -8h-65z" />
    <glyph glyph-name="cha" unicode="&#xe64b;" 
d="M329 588l387 -387l-21 -21l-387 387zM695 588l21 -21l-387 -387l-21 21zM512 -128q-104 0 -199 40.5t-163.5 109t-109 163.5t-40.5 199t40.5 199t109 163.5t163.5 109t199 40.5t199 -40.5t163.5 -109t109 -163.5t40.5 -199t-40.5 -199t-109 -163.5t-163.5 -109
t-199 -40.5zM512 866q-98 0 -187 -38t-154 -103t-103 -154t-38 -187t38 -187t103 -154t154 -103t187 -38t187 38t154 103t103 154t38 187t-38 187t-103 154t-154 103t-187 38z" />
    <glyph glyph-name="jiantou-copy" unicode="&#xe606;" 
d="M787 525.5q7 -8.5 7.5 -18t-5.5 -14.5l-266 -207q-1 -1 -4.5 -3.5t-4.5 -2.5q-7 -8 -16.5 -10.5t-14.5 2.5l-250 226q-6 5 -5 14.5t8.5 18t17 10.5t14.5 -3l228 -206l260 203q6 5 15 2t16 -11.5z" />
    <glyph glyph-name="meijiazhinengjiaju" unicode="&#xe60c;" 
d="M916 527q0 -8 6 -14.5t15 -6.5h5q8 0 14 6.5t6 14.5v37q0 24 -21 34l-411 212q-17 9 -33 0l-408 -212q-21 -10 -21 -34v-573q0 -16 11 -27t27 -11h814q15 0 26 11t11 27v321q0 23 -6 43q-1 6 -4 11q-9 20 -27.5 32t-40.5 12q-33 0 -56 -26q-5 -5 -15 -17l-4 -5
q-24 -30 -33 -38l-3 -3l-6 -6h-8h-13h-1h-1h-1h-1h-1h-1h-1h-1h-1h-1h-1h-1v0h-1h-1h-1h-1h-1h-1h-1h-1h-1h-1h-1h-1h-1h-1h-1h-1h-1h-1h-1h-1h-1h-2h-105q-152 0 -153 1h-7l-4 4q-2 1 -5 4q-9 8 -34 38l-3 5q-10 12 -15 17q-23 26 -57 26q-21 0 -39.5 -12t-28.5 -32
q-2 -5 -4 -13q-6 -18 -6 -41v-185q0 -10 7 -16.5t16.5 -6.5t16 6.5t6.5 16.5v185q0 17 6 33q8 18 27 18q13 0 24 -13l2 -2q4 -4 9 -11l4 -5q20 -25 28 -34q5 -4 10 -9q23 -21 51 -21h304q24 0 42 17q2 3 4 4q11 10 38 43l4 5q5 7 9 11q2 2 4 5v-1q9 11 22 11q12 0 21 -9
q3 -3 5 -7v-1v1q1 -2 1 -3q1 -1 2 -4q3 -12 3 -28v-23v-254q0 -14 -10 -24.5t-25 -10.5h-726q-15 0 -25.5 10.5t-10.5 24.5v492q0 31 28 45v0l349 183q22 11 44 0l354 -183q27 -14 27 -45zM486 377q8 0 14 6v0q36 39 88 39t88 -39v0q6 -6 14.5 -6t14.5 6t6 15q0 11 -8 17
q-48 50 -115 50q-68 0 -116 -51v0h-1v-1v0q-5 -6 -5 -14q0 -9 6 -15.5t14 -6.5zM763 473v1q6 -6 14 -6t14 6t6 15q0 12 -9 18q-83 85 -200 85t-201 -86q-9 -6 -9 -18q0 -8 6 -14.5t14.5 -6.5t14.5 7v-1q73 76 175 76t175 -76z" />
    <glyph glyph-name="icon205" unicode="&#xe605;" 
d="M638 445l-87 -113l-63 75l-87 -112h350zM838 736h-525q-12 0 -20.5 -8.5t-8.5 -19.5v-528q0 -11 8.5 -19.5t20.5 -8.5h525q12 0 20.5 8.5t8.5 19.5v528q0 11 -8.5 19.5t-20.5 8.5zM793 226h-435v436h435v-436zM225 118v511h-68v-511q0 -37 26 -63.5t64 -26.5h543v69h-543
q-7 0 -14.5 7.5t-7.5 13.5z" />
    <glyph glyph-name="guomeiguanjia" unicode="&#xe613;" 
d="M509 115q-103 0 -180 68t-89 169h-58q12 -123 106 -208.5t221 -85.5q99 0 178.5 53.5t118.5 141.5h4v64h-112v-64h48q-37 -64 -99.5 -101t-137.5 -37zM746 522h64q-39 85 -120 138.5t-178 53.5q-112 0 -198 -66.5t-116 -170.5h58q29 81 99 131.5t157 50.5q73 0 135 -37
t99 -100zM509 835q147 0 264.5 -87t160.5 -223h58q-44 160 -178 262.5t-305 102.5q-184 0 -323 -117t-173 -296h57q32 154 155.5 256t283.5 102zM934 253h4q-44 -139 -162 -226.5t-267 -87.5q-115 0 -214.5 55t-161 149.5t-69.5 208.5h-58q10 -130 79 -237.5t181 -170
t243 -62.5q171 0 305.5 104t180.5 267h29v64h-90v-64zM992 448h-262q-12 0 -22 -10t-10 -22v-26h326v26q0 12 -10 22t-22 10z" />
    <glyph glyph-name="bianji" unicode="&#xe622;" 
d="M66 -60l229 72l529 529l-157 157l-529 -529zM785 816l-66 -66l157 -157l65 66q17 16 17 39t-17 39l-78 79q-16 16 -39 16t-39 -16v0z" />
    <glyph glyph-name="zititubiao2youjiao" unicode="&#xe700;" 
d="M721 345q9 9 9 23q0 13 -9 22l-366 366q-9 9 -22 9t-22 -9t-9 -22t9 -22l344 -344l-344 -345q-9 -9 -9 -22t9 -22t22 -9t22 9z" />
    <glyph glyph-name="shouye-copy-copy-copy" unicode="&#xe603;" 
d="M1009 344l-501 468l-501 -467q-7 -7 -7.5 -17t6.5 -17.5t17 -7.5t17 7l468 436l468 -438q7 -6 17 -6t17 7q7 8 7 18t-8 17v0zM1009 344zM856 334q-10 0 -17 -7t-7 -17v-372h-194v259h-259v-259h-195v372q0 10 -7 17t-17 7t-17 -7t-7 -17v-421h291v259h162v-259h292v421
q0 10 -7.5 17t-17.5 7v0zM856 334zM686 682h146v-130q0 -10 7 -17t17 -7t17.5 7t7.5 17v178h-195q-10 0 -17 -7t-7 -17t7 -17t17 -7v0zM686 682z" />
    <glyph glyph-name="riji1" unicode="&#xe7cc;" 
d="M123 701h129q7 0 11.5 4t4.5 10.5t-4.5 11t-11.5 4.5h-129q-7 0 -11.5 -4.5t-4.5 -11t4.5 -10.5t11.5 -4zM123 570h129q7 0 11.5 4t4.5 11t-4.5 11t-11.5 4h-129q-7 0 -11.5 -4t-4.5 -11t4.5 -11t11.5 -4zM123 429h129q7 0 11.5 4.5t4.5 11t-4.5 10.5t-11.5 4h-129
q-7 0 -11.5 -4t-4.5 -10.5t4.5 -11t11.5 -4.5zM815 467q0 5 -4 9t-9.5 4t-9.5 -4t-4 -9v-152q0 -6 4 -10t9.5 -4t9.5 4t4 10v152zM823 831h-635q-14 0 -14 -12v-857q0 -8 3.5 -16.5t10.5 -8.5h635q36 0 65 29.5t29 63.5v718q0 34 -28.5 58.5t-65.5 24.5zM890 52
q0 -36 -25 -62t-63 -26h-588h-14v829v11h602q39 0 63.5 -22t24.5 -56v-674zM123 298h130q7 0 11.5 4t4.5 10.5t-4.5 11t-11.5 4.5h-130q-6 0 -11 -4.5t-5 -11t5 -10.5t11 -4zM123 167h130q7 0 11.5 4t4.5 11t-4.5 11t-11.5 4h-130q-6 0 -11 -4t-5 -11t5 -11t11 -4zM123 26
h130q7 0 11.5 4.5t4.5 11t-4.5 10.5t-11.5 4h-130q-6 0 -11 -4t-5 -10.5t5 -11t11 -4.5z" />
    <glyph glyph-name="daosanjiao" unicode="&#xe618;" 
d="M21 603l491 -536l491 536h-982z" />
    <glyph glyph-name="danxuankuang" unicode="&#xe638;" 
d="M512 -112q-135 0 -249 66.5t-180.5 180.5t-66.5 249t66.5 249t180.5 180.5t249 66.5t249 -66.5t180.5 -180.5t66.5 -249t-66.5 -249t-180.5 -180.5t-249 -66.5zM512 864q-130 0 -240.5 -64.5t-175 -175t-64.5 -240.5t64.5 -240.5t175 -175t240.5 -64.5t240.5 64.5
t175 175t64.5 240.5t-64.5 240.5t-175 175t-240.5 64.5z" />
    <glyph glyph-name="sort-up" unicode="&#xe61e;" 
d="M298 448h427l-214 256z" />
    <glyph glyph-name="taoxin" unicode="&#xe60e;" horiz-adv-x="1094" 
d="M547 -107l-77 71q-61 54 -92 82t-81 75t-75.5 74t-63 67.5t-56.5 68.5t-42 64.5t-34 66.5t-18.5 65t-7.5 69q0 124 88 212t212 88q70 0 135.5 -30.5t111.5 -82.5q45 53 110.5 83t136.5 30q125 0 213 -88t88 -212q0 -50 -12.5 -97t-46 -99.5t-63 -92.5t-94 -104t-106 -103
t-129.5 -119q-13 -12 -19 -17z" />
    <glyph glyph-name="wodedingdan" unicode="&#xe611;" 
d="M768 -128h256v256h-256v-256zM768 256h256v256h-256v-256zM384 640h256v256h-256v-256zM768 896v-256h256v256h-256zM384 256h256v256h-256v-256zM0 256h256v256h-256v-256zM0 -128h256v256h-256v-256zM384 -128h256v256h-256v-256zM0 640h256v256h-256v-256z" />
    <glyph glyph-name="wodeqiandao" unicode="&#xe614;" 
d="M614 230h-358v-102h358v102zM870 -26h-716v564h716v-564zM870 794h-51v102h-102v-102h-410v102h-102v-102h-51q-43 0 -73 -30.5t-30 -72.5v-717q0 -42 30 -72t73 -30h716q43 0 73 30t30 72v717q0 42 -30 72.5t-73 30.5zM768 435h-512v-102h512v102z" />
    <glyph glyph-name="wode" unicode="&#xe616;" 
d="M512 15q-94 0 -175.5 44.5t-131.5 119.5q1 36 34 67.5t82 50.5t100 29.5t91 10.5t91 -10.5t100 -29.5t82 -50.5t34 -67.5q-50 -75 -131.5 -119.5t-175.5 -44.5zM512 742q63 0 108.5 -45t45.5 -108t-45.5 -108.5t-108.5 -45.5t-108.5 45.5t-45.5 108.5t45.5 108t108.5 45z
M512 896q-139 0 -257 -68.5t-186.5 -186.5t-68.5 -257t68.5 -257t186.5 -186.5t257 -68.5t257 68.5t186.5 186.5t68.5 257t-68.5 257t-186.5 186.5t-257 68.5z" />
    <glyph glyph-name="taoxin-line" unicode="&#xe617;" horiz-adv-x="1094" 
d="M794 861q109 0 187 -78.5t78 -186.5q0 -30 -6.5 -60.5t-16 -57t-30.5 -60t-37 -57.5t-50 -61.5t-56 -61.5t-67 -67.5t-71.5 -68t-80.5 -75.5q-15 -14 -23 -21l-21 -17l-53 -46l-53 46q-6 5 -19 17q-57 52 -85 78t-76 71t-71.5 69.5t-59 63.5t-52.5 64t-39.5 59.5t-32 62
t-17 59.5t-7.5 63q0 108 78.5 186.5t186.5 78.5q60 0 118.5 -27.5t104.5 -75.5l28 -31l25 31q39 48 97 75.5t121 27.5zM794 896q-71 0 -136.5 -30t-110.5 -83q-46 52 -111.5 82.5t-135.5 30.5q-124 0 -212 -88t-88 -212q0 -34 7.5 -69t18.5 -65t34 -66.5t42 -64.5
t56.5 -68.5t63 -67.5t75.5 -74t81 -75t92 -82l77 -71l78 71q6 6 19 17q88 80 129.5 119t106 103t94 104t63 92.5t46 99.5t12.5 97q0 124 -88 212t-213 88z" />
    <glyph glyph-name="shejishi" unicode="&#xe619;" 
d="M512 -26q-111 0 -205.5 55t-149.5 149.5t-55 205.5q0 29 2 43q91 40 160.5 111.5t106.5 162.5q70 -100 180.5 -158.5t236.5 -58.5q64 0 115 15q19 -53 19 -115q0 -111 -55 -205.5t-149.5 -149.5t-205.5 -55zM512 896q-139 0 -257 -68.5t-186.5 -186.5t-68.5 -257
t68.5 -257t186.5 -186.5t257 -68.5t257 68.5t186.5 186.5t68.5 257t-68.5 257t-186.5 186.5t-257 68.5zM665.5 396q-26.5 0 -45 -18.5t-18.5 -44.5t18.5 -45t45 -19t45 19t18.5 45t-18.5 44.5t-45 18.5zM358.5 396q-26.5 0 -45 -18.5t-18.5 -44.5t18.5 -45t45 -19t45 19
t18.5 45t-18.5 44.5t-45 18.5z" />
    <glyph glyph-name="wodejifen" unicode="&#xe61a;" 
d="M584 72v-98h-136v100q-70 15 -116.5 59t-49.5 115h99q9 -94 136 -94q67 0 95 25.5t28 56.5q0 36 -28.5 63t-107.5 47q-104 25 -159.5 68.5t-55.5 117.5q0 63 45 106.5t114 57.5v98h136v-100q68 -17 106 -64.5t40 -109.5h-100q-5 94 -113 94q-56 0 -89.5 -23.5
t-33.5 -60.5q0 -34 30.5 -56.5t105.5 -40.5q35 -9 62 -18.5t57 -26t50 -37t33 -51t13 -67.5q-2 -66 -46 -106.5t-115 -54.5zM512 896q-138 0 -256 -69t-187 -187t-69 -256t69 -256t187 -187t256 -69t256 69t187 187t69 256t-69 256t-187 187t-256 69z" />
    <glyph glyph-name="woderiji" unicode="&#xe61c;" 
d="M929 108q-77 23 -164 23q-57 0 -132.5 -20.5t-123.5 -49.5v535q45 30 120 50t136 20q84 0 164 -23v-535zM929 735q-77 23 -164 23q-162 0 -256 -69q-89 69 -256 69q-163 0 -253 -69v-679q0 -8 7 -15.5t16 -7.5q3 0 6 1.5t4 1.5q46 22 108 36.5t112 14.5q163 0 256 -69
q45 30 120 49.5t136 19.5q134 0 221 -49q5 -2 10 -2q8 0 15.5 7t7.5 16v673q-28 25 -90 49z" />
    <glyph glyph-name="zhuanfa" unicode="&#xe61d;" 
d="M650 771l338 -336l-338 -338v197h-25q-186 0 -327 -52t-247 -160q22 70 52.5 131t79.5 123t109.5 109t146.5 83t188 51l23 2v190zM625 832v-228q-116 -16 -212 -59.5t-163.5 -102.5t-119 -136.5t-82 -157t-48.5 -168.5q107 149 259 219t366 70v-233l399 399z" />
    <glyph glyph-name="guanzhu" unicode="&#xe620;" 
d="M973 538h-307v-666h-103v307h-102v-307h-103v666h-307v102h922v-102zM512 896q42 0 72 -30t30 -72.5t-30 -72.5t-72 -30t-72 30t-30 72.5t30 72.5t72 30z" />
    <glyph glyph-name="liulan" unicode="&#xe623;" 
d="M512 707q160 0 291 -87.5t193 -235.5q-62 -148 -193 -235.5t-291 -87.5t-291 87.5t-193 235.5q62 148 193 235.5t291 87.5zM512 125q42 0 100 18q49 20 85 55.5t53 83.5q25 63 18 127t-44 118q-36 53 -92.5 83t-119.5 30q-67 0 -128 -31q-65 -32 -97 -97
q-33 -67 -32 -136t37 -128q36 -57 94.5 -90t125.5 -33zM512 499q34 0 67 -18q19 -11 30 -30q17 -31 17.5 -64t-14.5 -59q-32 -57 -97 -57q-35 0 -67 18q-19 12 -31 31q-17 30 -17.5 63t15.5 60q15 26 41 41t56 15zM512 732q-173 0 -312.5 -96.5t-199.5 -251.5
q60 -155 199.5 -251.5t312.5 -96.5t312.5 96.5t199.5 251.5q-60 155 -199.5 251.5t-312.5 96.5zM512 151q-61 0 -114.5 30t-83 79t-35 112.5t27.5 129.5q28 55 87 87q57 28 118 28q58 0 109.5 -27.5t81.5 -72.5t39.5 -103t-15.5 -120q-37 -91 -125 -125q-43 -18 -90 -18z
M512 525q-51 0 -90 -32.5t-47.5 -81t19.5 -104.5q15 -26 41 -41q34 -20 77 -20q51 0 90 32.5t47.5 81t-19.5 103.5q-15 26 -41 41q-41 21 -77 21z" />
    <glyph glyph-name="wodedingdan1" unicode="&#xe61b;" 
d="M768 -128h256v256h-256v-256zM768 256h256v256h-256v-256zM384 640h256v256h-256v-256zM768 896v-256h256v256h-256zM384 256h256v256h-256v-256zM0 256h256v256h-256v-256zM0 -128h256v256h-256v-256zM384 -128h256v256h-256v-256zM0 640h256v256h-256v-256z" />
    <glyph glyph-name="wodeqiandao1" unicode="&#xe621;" 
d="M614 230h-358v-102h358v102zM870 -26h-716v564h716v-564zM870 794h-51v102h-102v-102h-410v102h-102v-102h-51q-43 0 -73 -30.5t-30 -72.5v-717q0 -42 30 -72t73 -30h716q43 0 73 30t30 72v717q0 42 -30 72.5t-73 30.5zM768 435h-512v-102h512v102z" />
    <glyph glyph-name="wodejifen1" unicode="&#xe62a;" 
d="M584 72v-98h-136v100q-70 15 -116.5 59t-49.5 115h99q9 -94 136 -94q67 0 95 25.5t28 56.5q0 36 -28.5 63t-107.5 47q-104 25 -159.5 68.5t-55.5 117.5q0 63 45 106.5t114 57.5v98h136v-100q68 -17 106 -64.5t40 -109.5h-100q-5 94 -113 94q-56 0 -89.5 -23.5
t-33.5 -60.5q0 -34 30.5 -56.5t105.5 -40.5q35 -9 62 -18.5t57 -26t50 -37t33 -51t13 -67.5q-2 -66 -46 -106.5t-115 -54.5zM512 896q-138 0 -256 -69t-187 -187t-69 -256t69 -256t187 -187t256 -69t256 69t187 187t69 256t-69 256t-187 187t-256 69z" />
    <glyph glyph-name="woderiji1" unicode="&#xe62b;" 
d="M929 108q-77 23 -164 23q-57 0 -132.5 -20.5t-123.5 -49.5v535q45 30 120 50t136 20q84 0 164 -23v-535zM929 735q-77 23 -164 23q-162 0 -256 -69q-89 69 -256 69q-163 0 -253 -69v-679q0 -8 7 -15.5t16 -7.5q3 0 6 1.5t4 1.5q46 22 108 36.5t112 14.5q163 0 256 -69
q45 30 120 49.5t136 19.5q134 0 221 -49q5 -2 10 -2q8 0 15.5 7t7.5 16v673q-28 25 -90 49z" />
    <glyph glyph-name="wode1" unicode="&#xe630;" 
d="M512 15q-94 0 -175.5 44.5t-131.5 119.5q1 36 34 67.5t82 50.5t100 29.5t91 10.5t91 -10.5t100 -29.5t82 -50.5t34 -67.5q-50 -75 -131.5 -119.5t-175.5 -44.5zM512 742q63 0 108.5 -45t45.5 -108t-45.5 -108.5t-108.5 -45.5t-108.5 45.5t-45.5 108.5t45.5 108t108.5 45z
M512 896q-139 0 -257 -68.5t-186.5 -186.5t-68.5 -257t68.5 -257t186.5 -186.5t257 -68.5t257 68.5t186.5 186.5t68.5 257t-68.5 257t-186.5 186.5t-257 68.5z" />
    <glyph glyph-name="zhiding" unicode="&#xe628;" 
d="M512 384zM0 384q0 -139 68.5 -257t186.5 -186.5t257 -68.5t257 68.5t186.5 186.5t68.5 257t-68.5 257t-186.5 186.5t-257 68.5t-257 -68.5t-186.5 -186.5t-68.5 -257zM251 300h148v-223h223v223h149l-259 261zM251 673v-74h522v74h-522z" />
    <glyph glyph-name="guanzhu1" unicode="&#xe634;" 
d="M973 538h-307v-666h-103v307h-102v-307h-103v666h-307v102h922v-102zM512 896q42 0 72 -30t30 -72.5t-30 -72.5t-72 -30t-72 30t-30 72.5t30 72.5t72 30z" />
    <glyph glyph-name="zhuanfa1" unicode="&#xe635;" 
d="M650 771l338 -336l-338 -338v197h-25q-186 0 -327 -52t-247 -160q22 70 52.5 131t79.5 123t109.5 109t146.5 83t188 51l23 2v190zM625 832v-228q-116 -16 -212 -59.5t-163.5 -102.5t-119 -136.5t-82 -157t-48.5 -168.5q107 149 259 219t366 70v-233l399 399z" />
    <glyph glyph-name="zhuangxiuriji" unicode="&#xe62c;" 
d="M512 384zM0 384q0 -139 68.5 -257t186.5 -186.5t257 -68.5t257 68.5t186.5 186.5t68.5 257t-68.5 257t-186.5 186.5t-257 68.5t-257 -68.5t-186.5 -186.5t-68.5 -257zM829 204q-58 18 -124 18q-46 0 -103 -15t-92 -38v408q35 22 92 37.5t103 15.5q63 0 124 -19v-407z
M829 683q-58 18 -124 18q-125 0 -195 -53q-70 53 -194.5 53t-194.5 -53v-518q0 -6 5.5 -12t12.5 -6q3 0 5.5 1l2.5 1q36 17 83 28t85 11q125 0 195 -54q35 23 92 38.5t103 15.5q99 0 167 -37q5 -2 9 -2q6 0 12 5.5t6 12.5v514q-24 20 -70 37z" />
    <glyph glyph-name="meijia1" unicode="&#xe62d;" 
d="M717 101q-54 0 -90.5 37.5t-36.5 90t37.5 90.5t89.5 38t89.5 -37.5t37.5 -91t-37.5 -90.5t-89.5 -37zM385 589q0 52 37.5 89.5t89.5 37.5t89.5 -37.5t37.5 -89.5q0 -54 -37.5 -91.5t-89.5 -37.5t-89.5 37.5t-37.5 91.5zM307 101q-52 0 -89.5 37.5t-37.5 90t37.5 90.5
t89.5 38q53 0 90 -37.5t37 -91t-37 -90.5t-90 -37zM512 896q-139 0 -257 -68.5t-186.5 -186.5t-68.5 -257t68.5 -257t186.5 -186.5t257 -68.5t257 68.5t186.5 186.5t68.5 257t-68.5 257t-186.5 186.5t-257 68.5z" />
    <glyph glyph-name="liulan1" unicode="&#xe62e;" 
d="M512 707q160 0 291 -87.5t193 -235.5q-62 -148 -193 -235.5t-291 -87.5t-291 87.5t-193 235.5q62 148 193 235.5t291 87.5zM512 125q42 0 100 18q49 20 85 55.5t53 83.5q25 63 18 127t-44 118q-36 53 -92.5 83t-119.5 30q-67 0 -128 -31q-65 -32 -97 -97
q-33 -67 -32 -136t37 -128q36 -57 94.5 -90t125.5 -33zM512 499q34 0 67 -18q19 -11 30 -30q17 -31 17.5 -64t-14.5 -59q-32 -57 -97 -57q-35 0 -67 18q-19 12 -31 31q-17 30 -17.5 63t15.5 60q15 26 41 41t56 15zM512 732q-173 0 -312.5 -96.5t-199.5 -251.5
q60 -155 199.5 -251.5t312.5 -96.5t312.5 96.5t199.5 251.5q-60 155 -199.5 251.5t-312.5 96.5zM512 151q-61 0 -114.5 30t-83 79t-35 112.5t27.5 129.5q28 55 87 87q57 28 118 28q58 0 109.5 -27.5t81.5 -72.5t39.5 -103t-15.5 -120q-37 -91 -125 -125q-43 -18 -90 -18z
M512 525q-51 0 -90 -32.5t-47.5 -81t19.5 -104.5q15 -26 41 -41q34 -20 77 -20q51 0 90 32.5t47.5 81t-19.5 103.5q-15 26 -41 41q-41 21 -77 21z" />
    <glyph glyph-name="shejishi1" unicode="&#xe63a;" 
d="M512 -26q-111 0 -205.5 55t-149.5 149.5t-55 205.5q0 29 2 43q91 40 160.5 111.5t106.5 162.5q70 -100 180.5 -158.5t236.5 -58.5q64 0 115 15q19 -53 19 -115q0 -111 -55 -205.5t-149.5 -149.5t-205.5 -55zM512 896q-139 0 -257 -68.5t-186.5 -186.5t-68.5 -257
t68.5 -257t186.5 -186.5t257 -68.5t257 68.5t186.5 186.5t68.5 257t-68.5 257t-186.5 186.5t-257 68.5zM665.5 396q-26.5 0 -45 -18.5t-18.5 -44.5t18.5 -45t45 -19t45 19t18.5 45t-18.5 44.5t-45 18.5zM358.5 396q-26.5 0 -45 -18.5t-18.5 -44.5t18.5 -45t45 -19t45 19
t18.5 45t-18.5 44.5t-45 18.5z" />
    <glyph glyph-name="taoxin1" unicode="&#xe63b;" horiz-adv-x="1094" 
d="M547 -107l-77 71q-61 54 -92 82t-81 75t-75.5 74t-63 67.5t-56.5 68.5t-42 64.5t-34 66.5t-18.5 65t-7.5 69q0 124 88 212t212 88q70 0 135.5 -30.5t111.5 -82.5q45 53 110.5 83t136.5 30q125 0 213 -88t88 -212q0 -50 -12.5 -97t-46 -99.5t-63 -92.5t-94 -104t-106 -103
t-129.5 -119q-13 -12 -19 -17z" />
    <glyph glyph-name="taoxin-line1" unicode="&#xe63d;" horiz-adv-x="1094" 
d="M794 861q109 0 187 -78.5t78 -186.5q0 -30 -6.5 -60.5t-16 -57t-30.5 -60t-37 -57.5t-50 -61.5t-56 -61.5t-67 -67.5t-71.5 -68t-80.5 -75.5q-15 -14 -23 -21l-21 -17l-53 -46l-53 46q-6 5 -19 17q-57 52 -85 78t-76 71t-71.5 69.5t-59 63.5t-52.5 64t-39.5 59.5t-32 62
t-17 59.5t-7.5 63q0 108 78.5 186.5t186.5 78.5q60 0 118.5 -27.5t104.5 -75.5l28 -31l25 31q39 48 97 75.5t121 27.5zM794 896q-71 0 -136.5 -30t-110.5 -83q-46 52 -111.5 82.5t-135.5 30.5q-124 0 -212 -88t-88 -212q0 -34 7.5 -69t18.5 -65t34 -66.5t42 -64.5
t56.5 -68.5t63 -67.5t75.5 -74t81 -75t92 -82l77 -71l78 71q6 6 19 17q88 80 129.5 119t106 103t94 104t63 92.5t46 99.5t12.5 97q0 124 -88 212t-213 88z" />
    <glyph glyph-name="bianji1" unicode="&#xe63f;" 
d="M0 357h162v-377h161v377h162v162h-485v-162v0zM323 788v-161h270v-647h162v647h269v161h-701z" />
    <glyph glyph-name="dingwei" unicode="&#xe640;" 
d="M512 411q-53 0 -90.5 37t-37.5 90t37.5 90.5t90.5 37.5t90.5 -37.5t37.5 -90.5t-37.5 -90t-90.5 -37zM512 896q-97 0 -179.5 -48t-130.5 -130t-48 -180q0 -75 37 -171t89.5 -179.5t105.5 -156t89 -115t37 -42.5q7 8 20 23t50.5 61.5t71 93t75 112.5t71 126t50 127
t20.5 121q0 98 -48 180t-130.5 130t-179.5 48z" />
    <glyph glyph-name="kefu1" unicode="&#xe642;" 
d="M510 896q-114 0 -210.5 -56t-152.5 -152.5t-56 -210.5v-326v0q0 -58 41 -98.5t98 -40.5h1h139v372h-186v93q0 89 43.5 164t118.5 118.5t164 43.5t164 -43.5t118.5 -118.5t43.5 -164v-93h-186v-372h186v-47h-326v-93h279v0q58 0 99 41t41 98v1v465q0 114 -56 210.5
t-152.5 152.5t-210.5 56v0z" />
    <glyph glyph-name="lianxiren" unicode="&#xe643;" 
d="M512 320q-68 0 -152.5 -16.5t-166.5 -47t-137.5 -81.5t-55.5 -111v-192h1024v192q0 60 -55.5 111t-137.5 81.5t-166.5 47t-152.5 16.5zM512 896q-106 0 -181 -75t-75 -181t75 -181t181 -75t181 75t75 181t-75 181t-181 75zM512 198q89 0 183.5 -25t150.5 -56.5t56 -52.5
v-70h-780v70q0 21 56 52.5t150.5 56.5t183.5 25zM512 774q56 0 95 -39t39 -95t-39 -95t-95 -39t-95 39t-39 95t39 95t95 39v0z" />
    <glyph glyph-name="icon-test" unicode="&#xe644;" horiz-adv-x="2949" 
d="M2346 793h-103v82q0 9 6 15t14 6h62q9 0 15 -6t6 -15v-82zM2191 824h31v-31h-31v31zM2367 824h31v-31h-31v31zM2211 741v-31h32v31h103v-31h31v62h-166v-31zM2294.5 457q-27.5 0 -47 19.5t-19.5 47.5v7q13 5 25.5 18t18.5 26q24 -35 67 -35q10 0 19 2q2 -9 2 -18
q0 -28 -19 -47.5t-46.5 -19.5zM2294.5 606q-34.5 0 -58.5 -24t-24 -58.5t24 -58.5t58.5 -24t58.5 24t24 58.5t-24 58.5t-58.5 24zM2319 526q-10 -1 -10 -11t10 -10t10 10t-10 11zM2269 526q-10 -1 -10 -11t10 -10q11 0 11 10t-11 11zM2314 170q-6 11 -17 22q-17 18 -39 23
l64 64q22 -5 40 -22q10 -11 16 -23zM2390 246q-6 11 -17 22q-20 20 -39 23q-3 19 -23 39t-39 22l-83 -82q-2 -3 0 -6h1.5t0.5 -1q19 -6 33 -20q20 -20 22 -39q22 -5 40 -23q15 -16 21 -32q0 -1 1 -2q2 -3 5 0l82 82q-1 8 -5 17zM2291.5 -47q-28.5 0 -60 -13t-31.5 -33v-23
h183v23q0 20 -31.5 33t-60 13zM2292 -25q19 0 32.5 13.5t13.5 32.5t-13.5 32.5t-32.5 13.5t-32.5 -13.5t-13.5 -32.5t13.5 -32.5t32.5 -13.5z" />
    <glyph glyph-name="guanyu" unicode="&#xe645;" 
d="M662 494l-44 -45q-30 -31 -43.5 -59.5t-13.5 -78.5h-98v24q0 80 57 138l61 62q12 11 20.5 31t8.5 37v0q0 41 -29 69.5t-69 28.5t-69 -28.5t-29 -69.5h-97q0 81 57 138t138 57t138 -57t57 -138q0 -64 -45 -109v0zM561 116h-98v97h98v-97zM853 896h-682v0
q-41 0 -69.5 -28.5t-28.5 -69.5v0v-682v0q0 -41 28.5 -69.5t69.5 -28.5v0h195l146 -146l146 146h195q41 0 69.5 29t28.5 69v682q0 41 -28.5 69.5t-69.5 28.5z" />
    <glyph glyph-name="liulanliang" unicode="&#xe647;" 
d="M512 524q-58 0 -99 -41t-41 -99t41 -99t99 -41t99 41t41 99t-41 99t-99 41zM512 151q-96 0 -164.5 68.5t-68.5 164.5t68.5 164.5t164.5 68.5t164.5 -68.5t68.5 -164.5t-68.5 -164.5t-164.5 -68.5zM512 733q-172 0 -311.5 -96.5t-200.5 -252.5q61 -156 200.5 -252.5
t311.5 -96.5t311.5 96.5t200.5 252.5q-61 156 -200.5 252.5t-311.5 96.5v0z" />
    <glyph glyph-name="meijiadown" unicode="&#xe648;" 
d="M766 343h-511v408q0 42 30 72t72 30h307q42 0 72 -30t30 -72v-408zM0 496h153v-153h-153v153zM868 496h153v-153h-153v153zM102 88v-153h153v153h511v-153h153v306h-817v-153v0z" />
    <glyph glyph-name="meijiagerenzhongxin" unicode="&#xe649;" 
d="M505 271q-47 0 -105 -9t-119.5 -28t-112.5 -44.5t-83.5 -63.5t-32.5 -81v-113h905v113q0 43 -32.5 81t-83.5 63.5t-112 44.5t-119 28t-105 9zM504.5 384q93.5 0 160 66t66.5 160t-66.5 160t-160 66t-160 -66t-66.5 -160t66.5 -160t160 -66z" />
    <glyph glyph-name="meijiashouye" unicode="&#xe64a;" 
d="M768 333h-512v409q0 42 30 72.5t72 30.5h308q42 0 72 -30.5t30 -72.5v-409zM0 486h154v-153h-154v153v0zM870 486h154v-153h-154v153zM103 77v-154h153v154h512v-154h153v307h-818v-153v0z" />
    <glyph glyph-name="shanchu1" unicode="&#xe64c;" 
d="M711 839l-57 57h-284l-57 -57h-199v-114h796v114h-199zM311 391l80 80l121 -121l121 121l80 -80l-121 -121l121 -120l-80 -81l-121 121l-121 -121l-80 81l121 120zM171 -14q0 -47 33.5 -80.5t79.5 -33.5h456q46 0 79.5 33.5t33.5 80.5v682h-682v-682z" />
    <glyph glyph-name="shejishi2" unicode="&#xe64d;" 
d="M512 -26q-111 0 -205.5 55t-149.5 149.5t-55 205.5q0 20 3 44q78 35 156 115.5t111 159.5q71 -100 180.5 -158.5t237.5 -58.5q58 0 115 14q17 -57 17 -116q0 -111 -55 -205.5t-149.5 -149.5t-205.5 -55zM512 896q-139 0 -257 -68.5t-186.5 -186.5t-68.5 -257t68.5 -257
t186.5 -186.5t257 -68.5t257 68.5t186.5 186.5t68.5 257t-68.5 257t-186.5 186.5t-257 68.5zM665.5 397q-26.5 0 -45 -19t-18.5 -45.5t18.5 -45t45 -18.5t45.5 18.5t19 45t-19 45.5t-45.5 19zM358.5 397q-26.5 0 -45.5 -19t-19 -45.5t19 -45t45.5 -18.5t45 18.5t18.5 45
t-18.5 45.5t-45 19z" />
    <glyph glyph-name="shejituji" unicode="&#xe64e;" 
d="M300 248l191 255l148 -192l106 128l148 -191h-593zM936 715h-339l-85 84h-254q-35 0 -60 -24.5t-25 -59.5v-509q0 -35 25 -60t60 -25h678q35 0 59.5 25t25.5 60v424q-1 35 -25.5 59.5t-59.5 25.5zM88 630h-85v-212h1l-1 -382q1 -35 25.5 -59.5t59.5 -24.5h763v84h-763
v594z" />
    <glyph glyph-name="weiguanzhu" unicode="&#xe64f;" 
d="M387 640l279 -254v152h307v102h-586zM512 691q42 0 72 30t30 72.5t-30 72.5t-72 30t-72 -30t-30 -72.5t30 -72.5t72 -30zM56 757l128 -117h-133v-102h246l61 -56v-610h103v307h102v-307h103v330l235 -214l66 72l-845 769z" />
    <glyph glyph-name="wodedingdan3" unicode="&#xe650;" 
d="M768 -128h256v256h-256v-256zM768 256h256v256h-256v-256zM384 640h256v256h-256v-256zM768 896v-256h256v256h-256zM384 256h256v256h-256v-256zM0 256h256v256h-256v-256zM0 -128h256v256h-256v-256zM384 -128h256v256h-256v-256zM0 640h256v256h-256v-256z" />
    <glyph glyph-name="wodejifen2" unicode="&#xe651;" 
d="M584 72v-98h-137v99q-70 15 -116.5 59.5t-50.5 114.5h100q5 -43 37.5 -69t98.5 -26q67 0 95 25t28 56q0 37 -29 64t-108 46q-103 24 -158.5 68.5t-55.5 118.5q0 64 45 107t114 58v99h137v-100q69 -17 106.5 -64.5t39.5 -109.5h-100q-5 96 -114 96q-57 0 -90 -23.5
t-33 -60.5q0 -33 30.5 -55.5t106.5 -42.5q35 -9 62.5 -18.5t57 -26t49 -37t32.5 -51t13 -67.5q0 -67 -44 -107.5t-116 -54.5zM512 896q-139 0 -257 -68.5t-186.5 -186.5t-68.5 -257t68.5 -257t186.5 -186.5t257 -68.5t257 68.5t186.5 186.5t68.5 257t-68.5 257t-186.5 186.5
t-257 68.5z" />
    <glyph glyph-name="wodeqiandao3" unicode="&#xe652;" 
d="M258 439h254v-254h-254v254zM867 -18h-710v559h710v-559zM867 794h-50v102h-102v-102h-406v102h-102v-102h-50q-43 0 -72 -29.5t-29 -71.5l-1 -711q0 -42 29.5 -72t72.5 -30h710q42 0 72 30t30 72v711q0 42 -30 71.5t-72 29.5z" />
    <glyph glyph-name="xihuandown" unicode="&#xe653;" 
d="M512 -86l-74 68q-209 189 -282 270q-137 153 -153 280q-3 20 -3 40q0 118 81.5 200t200.5 82q66 0 127 -29t103 -78q42 49 103 78t127 29q119 0 200.5 -82t81.5 -200q0 -134 -125 -284q-75 -90 -274 -271q-12 -11 -39 -36z" />
    <glyph glyph-name="woderiji2" unicode="&#xe654;" 
d="M926 129q-73 24 -162 24q-60 0 -134 -20.5t-121 -49.5v532q47 30 121 50t134 20q89 0 162 -23v-533zM926 754q-74 23 -162 23q-163 0 -255 -69q-91 69 -254 69t-255 -69v-678q0 -9 7 -16t16 -7q2 0 5.5 1t6.5 1q47 23 108 37t112 14q163 0 254 -69q47 29 121 49t134 20
q129 0 220 -49q4 -2 11 -2q9 0 16 7.5t7 15.5v676q-37 28 -92 46z" />
    <glyph glyph-name="xihuannol" unicode="&#xe656;" 
d="M517 58l-5 -6l-5 6q-53 47 -79 71t-69.5 65t-65.5 63t-54.5 56.5t-48.5 56.5t-36 51.5t-29 52.5t-16 48.5t-7 49.5q0 77 51.5 128t128.5 51q59 0 110.5 -34t71.5 -86h96q20 52 71.5 86t110.5 34q77 0 128.5 -51t51.5 -128q0 -24 -7 -49.5t-16 -48.5t-29 -52.5t-36 -51.5
t-48.5 -56.5t-54.5 -56.5t-65.5 -63t-69.5 -65t-79 -71zM742 854q-66 0 -127 -29t-103 -78q-42 49 -103 78t-127 29q-119 0 -200.5 -82t-81.5 -200q0 -134 125 -284q75 -90 274 -271q12 -11 39 -36l74 -67l74 68q209 189 282 270q137 153 153 280q3 20 3 40q0 118 -81.5 200
t-200.5 82z" />
    <glyph glyph-name="xiugaiziliao" unicode="&#xe657;" 
d="M884 724q12 12 12 29.5t-12 30.5l-100 100q-13 12 -30.5 12t-29.5 -12l-84 -84l160 -160zM757 597l-160 160l-426 -426v-160h160zM0 43h1024v-171h-1024v171z" />
    <glyph glyph-name="yanzhengma" unicode="&#xe658;" 
d="M683 213h-342v512h342v-512zM683 896h-342q-35 0 -60 -25t-25 -60v-683q0 -35 25 -60t60 -25h342q35 0 60 25t25 60v683q0 35 -25 60t-60 25zM640 -128h85v85h-85v-85zM469 -128h86v85h-86v-85zM299 -128h85v85h-85v-85z" />
    <glyph glyph-name="xieriji" unicode="&#xe659;" 
d="M1007 666q17 17 17 40.5t-17 39.5l-133 133q-16 17 -39.5 17t-40.5 -17l-104 -104l213 -213l104 104v0zM0 85v-213h213l629 629l-213 213z" />
    <glyph glyph-name="yiguanzhu1" unicode="&#xe65a;" 
d="M973 538h-307v-666h-103v307h-102v-307h-103v666h-307v102h922v-102zM512 896q42 0 72 -30t30 -72.5t-30 -72.5t-72 -30t-72 30t-30 72.5t30 72.5t72 30z" />
    <glyph glyph-name="yijianfankui" unicode="&#xe65b;" 
d="M771 486h-512v103h512v-103zM771 282h-512v102h512v-102zM617 77h-358v102h358v-102zM514.5 794q21.5 0 36.5 -15t15 -36.5t-15 -36.5t-36.5 -15t-36.5 15t-15 36.5t15 36.5t36.5 15zM873 794h-214q-16 45 -55.5 73.5t-89 28.5t-88.5 -28.5t-56 -73.5h-214
q-42 0 -72 -30.5t-30 -72.5v-717q0 -42 30 -72t72 -30h717q42 0 72 30t30 72v717q0 42 -30 72.5t-72 30.5z" />
    <glyph glyph-name="zhuanfa2" unicode="&#xe65e;" 
d="M624 583v227l397 -398l-397 -397v233q-213 0 -365.5 -70.5t-258.5 -219.5q18 90 48.5 169.5t82 156.5t118.5 136t163.5 102.5t211.5 60.5z" />
    <glyph glyph-name="zhuangxiudai" unicode="&#xe65f;" 
d="M920 588h-818v103h818v-103zM920 77h-818v307h818v-307zM920 793h-818q-42 0 -71.5 -30t-29.5 -72l-1 -614v0q0 -42 30 -72t72 -30v0h818v0q42 0 72 30t30 72v0v614v0q0 42 -30 72t-72 30v0z" />
  </font>
</defs>
</svg>
